<?xml version="1.0" standalone="no"?>
<!DOCTYPE svg PUBLIC "-//W3C//DTD SVG 20010904//EN"
 "http://www.w3.org/TR/2001/REC-SVG-20010904/DTD/svg10.dtd">
<svg version="1.0" xmlns="http://www.w3.org/2000/svg"
 width="700.000000pt" height="700.000000pt" viewBox="0 0 700.000000 700.000000"
 preserveAspectRatio="xMidYMid meet">
<metadata>
Created by potrace 1.14, written by Peter Selinger 2001-2017
</metadata>
<g transform="translate(0.000000,700.000000) scale(0.100000,-0.100000)"
fill="#000000" stroke="none">
<path d="M5365 5789 c-44 -10 -151 -24 -237 -30 -109 -9 -158 -16 -158 -24 0
-8 26 -15 69 -19 118 -12 106 80 109 -807 1 -471 6 -777 12 -783 6 -6 28 1 60
18 66 36 117 35 249 -4 163 -48 272 -37 425 43 212 110 315 293 303 537 -8
162 -53 267 -158 365 -77 72 -161 107 -274 113 -117 6 -175 -12 -245 -75 l-50
-45 0 366 c0 287 -3 366 -12 365 -7 -1 -49 -10 -93 -20z m364 -677 c36 -26 76
-103 92 -176 22 -95 18 -500 -4 -591 -34 -137 -94 -195 -199 -195 -60 0 -90
16 -113 60 -26 50 -37 215 -33 506 3 263 4 281 25 319 26 50 61 83 99 95 41
13 103 5 133 -18z"/>
<path d="M986 5775 c-7 -20 1 -23 103 -34 54 -6 89 -15 100 -25 15 -15 16 -93
16 -859 0 -904 0 -895 -51 -957 -20 -23 -34 -30 -60 -30 -20 0 -37 6 -40 13
-3 8 9 39 26 71 52 99 33 187 -50 228 -47 24 -87 23 -140 -4 -67 -35 -85 -66
-85 -147 0 -90 30 -137 112 -178 146 -71 367 -3 528 162 66 67 93 122 105 216
5 41 10 383 10 764 0 380 3 700 6 712 7 27 56 43 132 43 46 0 53 3 50 18 -3
16 -30 17 -380 20 -332 2 -376 0 -382 -13z"/>
<path d="M2099 5177 c-127 -43 -212 -141 -212 -244 0 -66 20 -98 84 -131 75
-40 156 -15 186 56 32 76 -5 143 -86 156 -36 5 -41 10 -41 32 0 63 83 123 169
124 69 0 125 -32 153 -88 20 -42 23 -65 26 -213 l4 -165 -111 -22 c-199 -39
-307 -99 -365 -202 -28 -49 -31 -64 -31 -135 0 -87 12 -119 61 -169 40 -39 78
-57 138 -63 103 -11 215 43 278 132 18 25 35 45 39 45 3 0 9 -18 13 -40 8 -49
55 -105 103 -121 52 -17 178 -7 237 19 64 29 136 88 136 113 0 20 -15 26 -25
9 -3 -5 -26 -21 -50 -36 -51 -29 -77 -26 -103 14 -15 23 -18 68 -23 387 -6
390 -6 394 -65 464 -56 67 -172 101 -344 101 -83 0 -119 -5 -171 -23z m281
-644 c0 -205 -33 -293 -108 -293 -72 1 -112 57 -112 159 0 120 39 189 132 235
89 44 88 45 88 -101z"/>
<path d="M3301 5185 c-178 -50 -324 -193 -382 -375 -30 -93 -30 -251 0 -340
124 -364 583 -482 822 -212 48 55 65 90 49 106 -7 7 -24 -5 -56 -42 -65 -74
-134 -112 -204 -112 -134 1 -218 92 -255 279 -24 116 -16 394 13 493 34 120
85 176 165 185 56 7 102 -17 124 -62 16 -33 15 -39 0 -88 -26 -82 -23 -123 12
-158 25 -25 37 -29 84 -29 65 0 109 29 127 85 29 89 -35 189 -160 248 -58 28
-76 31 -175 34 -76 2 -127 -2 -164 -12z"/>
<path d="M4265 5181 c-93 -26 -164 -70 -240 -146 -103 -103 -165 -245 -165
-380 0 -135 61 -276 165 -380 175 -175 410 -214 633 -105 190 94 302 270 302
475 -1 252 -171 479 -405 540 -77 20 -214 18 -290 -4z m225 -39 c37 -28 67
-77 79 -130 25 -105 35 -348 23 -515 -19 -276 -56 -347 -178 -347 -43 0 -51 4
-89 43 -74 78 -100 204 -99 492 1 223 17 316 72 405 47 77 128 99 192 52z"/>
<path d="M2612 3460 c-98 -60 -96 -210 4 -267 104 -60 231 5 241 124 5 59 -18
108 -66 140 -45 30 -132 32 -179 3z"/>
<path d="M4343 3460 c-86 -21 -246 -40 -343 -40 -53 0 -70 -3 -70 -14 0 -18
22 -26 73 -26 61 0 83 -9 96 -36 8 -18 11 -246 11 -789 0 -649 2 -765 14 -765
8 0 38 11 68 25 69 32 105 31 223 -5 221 -68 418 -18 586 150 114 114 159 224
159 395 0 255 -141 453 -357 501 -136 30 -246 6 -332 -71 l-41 -37 0 366 c0
201 -3 366 -7 365 -5 -1 -41 -9 -80 -19z m344 -680 c35 -21 62 -66 88 -150 26
-80 33 -429 11 -559 -26 -163 -82 -242 -181 -257 -55 -8 -112 18 -137 61 -9
17 -22 71 -28 120 -13 116 -13 576 0 646 13 66 51 126 93 144 47 21 116 18
154 -5z"/>
<path d="M724 3438 c-12 -19 14 -29 90 -37 50 -4 81 -12 87 -22 5 -8 8 -312 6
-751 -2 -652 -4 -739 -18 -753 -9 -9 -42 -18 -85 -22 -80 -7 -106 -20 -78 -40
14 -10 93 -13 353 -13 185 0 346 3 359 6 14 4 22 13 20 22 -2 12 -24 19 -82
27 -57 8 -82 16 -92 30 -11 15 -14 86 -14 363 0 305 2 343 15 332 13 -11 445
-612 489 -681 22 -35 7 -47 -64 -51 -59 -3 -77 -22 -37 -37 15 -6 293 -10 680
-10 565 -1 656 1 667 14 15 18 7 21 -74 29 -32 2 -64 10 -70 16 -8 8 -13 166
-17 513 -3 276 -6 503 -7 503 -1 1 -37 -9 -79 -23 -90 -28 -241 -53 -328 -53
-113 0 -115 -35 -3 -42 38 -2 74 -10 80 -16 10 -10 14 -108 16 -405 2 -216 0
-411 -3 -434 -9 -61 -25 -66 -156 -58 -87 6 -116 12 -141 29 -17 11 -102 112
-187 222 -86 111 -246 317 -356 458 -110 141 -200 261 -200 265 0 12 158 194
338 388 155 170 189 193 278 193 57 0 81 12 72 36 -8 21 -475 20 -492 0 -19
-22 17 -36 94 -36 99 0 97 -23 -13 -162 -65 -81 -409 -463 -466 -517 l-36 -35
0 340 c0 186 4 345 9 353 5 8 42 19 88 25 58 8 78 15 78 26 0 13 -47 15 -358
16 -221 1 -360 -2 -363 -8z"/>
<path d="M3510 2860 c-46 -25 -235 -61 -352 -67 -94 -4 -128 -9 -128 -19 0 -8
19 -15 48 -19 95 -12 122 -24 138 -60 20 -48 21 -802 1 -829 -10 -13 -32 -19
-80 -23 -68 -6 -91 -18 -66 -34 8 -5 156 -9 330 -9 260 0 319 3 328 14 16 19
7 23 -77 31 -39 4 -77 13 -83 21 -7 9 -10 125 -7 381 3 359 4 369 26 418 29
63 56 92 94 100 45 10 53 -6 27 -54 -55 -106 23 -200 146 -177 70 14 125 105
110 185 -15 80 -74 136 -156 147 -93 13 -174 -33 -228 -128 l-28 -49 -7 83
c-7 89 -13 101 -36 88z"/>
<path d="M5114 2829 c-10 -17 17 -29 69 -29 41 0 53 -5 75 -29 17 -18 79 -156
166 -372 77 -189 170 -418 207 -508 l68 -164 -40 -107 c-57 -153 -100 -231
-137 -253 -39 -23 -62 -13 -97 43 -32 51 -57 63 -117 58 -58 -6 -84 -27 -98
-80 -20 -71 20 -157 86 -184 81 -34 170 -9 239 67 64 72 124 220 439 1088 114
317 158 427 172 432 11 4 44 8 75 8 42 1 58 5 63 16 3 9 0 18 -7 20 -6 2 -93
3 -192 2 -152 -2 -180 -4 -180 -17 0 -11 19 -17 78 -24 l77 -8 0 -33 c0 -44
-169 -531 -209 -602 -6 -11 -25 27 -69 138 -85 214 -172 458 -172 479 0 22 19
30 70 30 48 0 70 8 70 26 0 12 -52 14 -314 14 -220 0 -317 -3 -322 -11z"/>
</g>
</svg>
