<?xml version="1.0" encoding="utf-8"?>
<!-- Generator: Adobe Illustrator 26.1.0, SVG Export Plug-In . SVG Version: 6.00 Build 0)  -->
<svg version="1.1" id="Layer_1" xmlns="http://www.w3.org/2000/svg" xmlns:xlink="http://www.w3.org/1999/xlink" x="0px" y="0px"
	 viewBox="0 0 850.39 850.39" style="enable-background:new 0 0 850.39 850.39;" xml:space="preserve">
<style type="text/css">
	.st0{fill:#FFFFFF;}
</style>
<path class="st0" d="M793.7,850.39H56.69C25.38,850.39,0,825.01,0,793.7V56.69C0,25.38,25.38,0,56.69,0H793.7
	c31.31,0,56.69,25.38,56.69,56.69V793.7C850.39,825.01,825.01,850.39,793.7,850.39z"/>
<g>
	<path d="M212.62,149.68c0,1.55-1.16,2.33-3.47,2.33h-0.29c-1.93,0-4.34,0-7.23,0c-6.36,0-10.12,1.26-11.28,3.76
		c-0.58,0.97-0.87,6.56-0.87,16.78v129.86c0,21.6-0.87,35.67-2.6,42.23c-2.7,10.02-11.19,19.86-25.45,29.5
		c-11.38,7.71-22.66,11.57-33.84,11.57c-9.07,0-16.39-2.31-21.98-6.94s-8.39-10.7-8.39-18.22c0-5.78,1.88-10.56,5.64-14.32
		s8.53-5.64,14.32-5.64c5.01,0,9.21,1.64,12.58,4.92s5.06,7.42,5.06,12.44c0,5.01-2.02,10.22-6.07,15.62
		c-1.16,1.54-1.74,2.89-1.74,4.05c0,2.12,1.71,3.18,5.13,3.18c8.55,0,13.3-7.81,14.25-23.43c0.38-3.09,0.58-24.77,0.58-65.08V174.57
		c0-3.08,0-6.17,0-9.26l-0.29-4.63c-0.39-3.28-1.74-5.45-4.05-6.51s-6.94-1.69-13.88-1.88c-4.44-0.19-7.04-0.38-7.81-0.58
		c-0.77-0.19-1.16-0.87-1.16-2.02c0-1.74,1.45-2.6,4.34-2.6h36.15c-0.19,0,3.76,0,11.86,0c8.87,0,17.93,0,27.19,0h8.39
		C210.98,147.09,212.62,147.96,212.62,149.68z"/>
	<path d="M350.29,331.93c0,1.57-1.55,3.72-4.63,6.46c-8.29,7.64-18.51,11.45-30.66,11.45c-7.91,0-13.64-1.66-17.21-4.98
		c-3.57-3.32-5.93-9.27-7.09-17.87c-8.68,15.81-20.54,23.72-35.58,23.72c-8.29,0-14.99-2.6-20.1-7.81s-7.66-11.95-7.66-20.25
		c0-24.29,20.82-38.66,62.47-43.09v-6.07c0-19.28-0.68-31.14-2.02-35.57l-0.29-1.45c-2.7-9.64-9.54-14.46-20.54-14.46
		c-6.36,0-11.47,1.83-15.33,5.5s-5.78,7.23-5.78,10.7c0,1.93,2.31,3.09,6.94,3.47c6.94,0.58,10.41,4.82,10.41,12.73
		c0,4.24-1.4,7.76-4.19,10.56c-2.8,2.8-6.41,4.19-10.85,4.19c-5.59,0-10.17-1.69-13.74-5.06s-5.35-7.66-5.35-12.87
		c0-8.29,4.14-15.81,12.44-22.56c8.29-6.75,19.18-10.12,32.68-10.12c20.05,0,34.03,3.57,41.94,10.7c6.36,5.98,9.54,16.39,9.54,31.24
		v49.46c0,9.64,0.09,15.23,0.29,16.77c0.96,8.1,3.76,12.15,8.39,12.15c3.28,0,7.33-2.31,12.15-6.94c0.96-0.96,1.74-1.45,2.31-1.45
		C349.8,330.46,350.29,330.96,350.29,331.93z M289.84,297.49v-14.17c-18.71,3.67-28.06,14.27-28.06,31.81
		c0,13.5,4.63,20.25,13.88,20.25c5.21,0,8.87-2.89,10.99-8.68C288.78,320.92,289.84,311.19,289.84,297.49z"/>
	<path d="M462.22,248.32c0,4.63-1.35,8.39-4.05,11.28c-2.7,2.89-6.17,4.34-10.41,4.34c-10.22,0-15.33-4.53-15.33-13.59
		c0-2.31,0.62-5.06,1.88-8.24c1.25-3.18,1.88-5.45,1.88-6.8c0-3.66-1.4-6.8-4.19-9.4c-2.8-2.6-6.22-3.9-10.27-3.9
		c-17.55,0-26.32,19.57-26.32,58.71c0,22.37,3.85,38.37,11.57,48.01c5.97,7.33,13.3,10.99,21.98,10.99
		c9.06,0,18.32-5.88,27.77-17.64c1.16-1.54,2.21-2.31,3.18-2.31c0.77,0,1.16,0.58,1.16,1.74c0,3.67-3.47,8.78-10.41,15.33
		c-10.03,9.45-22.08,14.17-36.15,14.17c-17.35,0-32.15-6.22-44.4-18.65c-12.25-12.44-18.37-27.52-18.37-45.26
		c0-19.28,6.46-35.53,19.38-48.73c12.92-13.21,28.82-19.81,47.72-19.81c12.15,0,22.42,2.89,30.8,8.68
		C458.02,232.99,462.22,240.04,462.22,248.32z"/>
	<path d="M602.49,285.92c0,20.63-8.1,37.31-24.3,50.04c-12.72,10.03-26.7,15.04-41.93,15.04c-18.13,0-33.79-6.51-47-19.52
		c-13.21-13.02-19.81-28.39-19.81-46.13c0-18.51,6.6-34.27,19.81-47.29s29.16-19.52,47.87-19.52c17.93,0,33.31,6.61,46.13,19.81
		C596.08,251.55,602.49,267.41,602.49,285.92z M558.82,286.21c0-23.91-1.63-40.3-4.88-49.17c-3.64-9.83-9.49-14.75-17.54-14.75
		c-7.47,0-13.32,5.16-17.53,15.47c-4.22,10.32-6.32,24.54-6.32,42.66c0,25.26,2.49,43.19,7.47,53.8
		c4.02,8.49,9.67,12.73,16.96,12.73c9.01,0,14.95-5.4,17.82-16.2C557.48,320.54,558.82,305.69,558.82,286.21z"/>
	<path d="M753.18,281.01c0,24.29-9.64,43.09-28.92,56.4c-13.3,9.07-27.19,13.59-41.65,13.59c-5.4,0-13.21-1.74-23.43-5.21
		c-5.4-1.92-9.54-2.89-12.44-2.89c-5.21,0-10.51,1.93-15.91,5.78c-1.16,0.77-2.02,1.16-2.6,1.16c-1.35,0-2.12-0.58-2.31-1.74
		s-0.29-4.63-0.29-10.41V193.37c0-0.77,0-2.6,0-5.5c0-2.7,0-5.11,0-7.23v-12.73c0-5.01-0.9-8.29-2.71-9.83
		c-1.81-1.54-5.76-2.31-11.85-2.31c-5.14,0-7.71-0.67-7.71-2.02s1.18-2.02,3.52-2.02c21.91,0,40.98-2.41,57.21-7.23l0.29,4.63v85.32
		c7.69-10.6,18.35-15.91,32-15.91c16.53,0,30.12,5.83,40.79,17.5C747.84,247.7,753.18,262.69,753.18,281.01z M710.08,282.16
		c0-37.41-7.81-56.11-23.43-56.11c-8.68,0-15.04,4.05-19.09,12.15c-1.55,3.09-2.46,6.7-2.75,10.85c-0.29,4.15-0.43,15.96-0.43,35.43
		v17.64c0,18.13,1.2,30.13,3.62,36.01c2.41,5.88,7.28,8.82,14.61,8.82c10.02,0,17.11-4.92,21.26-14.75
		C708.01,322.37,710.08,305.69,710.08,282.16z"/>
</g>
<g>
	<path d="M292.02,628.26c0,1.82-3.57,2.73-10.7,2.73c-6.17,0-15.14,0-26.9,0c-8.68-0.19-14.66-0.19-17.93,0h-16.2h-13.02
		c-4.24,0-6.36-0.87-6.36-2.6c0-1.35,0.53-2.12,1.59-2.31s4.48-0.38,10.27-0.58c3.08,0,4.63-0.96,4.63-2.87
		c0-0.76-5.28-8.52-15.83-23.28l-42.33-59.21c-2.49-2.49-4.32-4.5-5.47-6.04v73.03c0,8.62,0.71,13.75,2.14,15.38
		s6.24,2.64,14.43,3.02c4.76,0.19,7.15,1.15,7.15,2.88s-1.74,2.59-5.21,2.59h-18.22c-12.15,0-24.58,0-37.31,0c-1.93,0-4.87,0-8.82,0
		s-8.15,0-12.58,0h-3.76c-3.09,0-4.63-0.86-4.63-2.59s3.23-2.69,9.69-2.88s10.41-1.06,11.86-2.59c1.45-1.54,2.17-5.77,2.17-12.69
		V443.84c0-2.69-0.68-4.51-2.02-5.48c-1.93-1.15-6.07-1.73-12.44-1.73c-5.59,0-8.39-0.92-8.39-2.76c0-1.63,1.35-2.45,4.05-2.45
		l35,0.87c0.38,0,1.54,0,3.47,0c2.12,0,4.05,0,5.78,0l17.93-0.87h11.86c2.12,0,4.43,0,6.94,0c2.31,0,3.47,0.87,3.47,2.6
		c0,1.35-2.29,2.12-6.86,2.31c-7.61,0.39-12.13,1.11-13.56,2.17c-1.43,1.06-2.14,4.48-2.14,10.27v76.36
		c5.18-4.24,22.66-23.23,52.43-56.98c13.25-15.04,19.88-24.58,19.88-28.63c0-1.35-0.87-2.17-2.6-2.46s-6.65-0.43-14.75-0.43
		c-2.7,0-4.05-0.87-4.05-2.6c0-1.93,2.31-2.79,6.94-2.6h12.73c0.38,0,1.25,0,2.6,0c1.74,0,3.28,0,4.63,0h29.79
		c2.7,0,4.05,0.87,4.05,2.61c0,1.93-1.55,2.9-4.63,2.9c-7.14,0-12,0.48-14.61,1.45s-5.74,3.28-9.4,6.95
		c-17.93,18.73-36.64,39.49-56.11,62.27c3.28,4.64,12.53,16.7,27.77,36.21c10.6,13.33,25.74,32.73,45.41,58.22
		c8.68,11.59,14.36,18.49,17.06,20.71c2.7,2.22,6.65,3.33,11.86,3.33C288.93,626.08,292.02,626.81,292.02,628.26z"/>
	<path d="M367.5,628.97c0,1.35-0.87,2.02-2.59,2.02h-38.33h-27.66c-1.16,0-2.6,0-4.32,0c-1.54,0-2.4,0-2.59,0
		c-2.3,0-3.46-0.61-3.46-1.85c0-0.92,2.21-1.46,6.65-1.62c6.55-0.19,10.41-0.92,11.57-2.18s1.74-5.09,1.74-11.49v-83.43
		c0-7.37-0.63-11.77-1.88-13.23c-1.26-1.46-5.06-2.18-11.42-2.18c-4.05,0-6.41-0.1-7.09-0.29s-1.01-0.87-1.01-2.02
		c0-1.35,1.45-2.02,4.34-2.02c21.21-0.19,39.33-3.47,54.37-9.83c0.38,2.31,0.87,8.68,1.45,19.09v36.73v54.38
		c0,7.91,0.72,12.54,2.17,13.88c1.45,1.35,6.41,2.02,14.9,2.02C366.44,626.94,367.5,627.62,367.5,628.97z M347.25,445.6
		c0,5.4-1.88,10.03-5.62,13.88c-3.75,3.86-8.28,5.79-13.61,5.79c-5.52,0-10.16-1.83-13.91-5.5c-3.75-3.66-5.62-8.29-5.62-13.88
		c0-5.4,1.87-9.83,5.62-13.3s8.58-5.21,14.5-5.21c5.32,0,9.76,1.74,13.31,5.21C345.48,436.05,347.25,440.39,347.25,445.6z"/>
	<path d="M481.74,523.69c0,5.59-1.64,10.17-4.92,13.74s-7.52,5.35-12.73,5.35c-10.41,0-15.62-4.82-15.62-14.46
		c0-3.28,1.25-6.55,3.76-9.83c0.58-0.77,0.87-1.45,0.87-2.03c0-1.74-1.24-2.6-3.71-2.6c-6.47,0-11.42,5.1-14.84,15.29
		c-1.9,5.77-2.85,19.91-2.85,42.41v21.06V618c0,5.19,2.6,7.98,7.81,8.36c3.08,0.19,6.75,0.29,10.99,0.29
		c2.12,0.19,3.18,0.87,3.18,2.02c0,1.54-0.87,2.31-2.6,2.31h-5.78c-1.74,0-10.12,0-25.16,0c0.77,0-3.57,0-13.01,0h-14.17h-10.99
		c-1.93,0-4.15,0-6.65,0c-2.12,0-3.18-0.62-3.18-1.88c0-1.25,1.35-1.88,4.05-1.88c7.9-0.19,12.68-1.01,14.32-2.45
		s2.46-5.72,2.46-12.84l-0.29-77.89c0-6.54-0.92-11.06-2.75-13.56s-5.93-4.04-12.29-4.62c-5.02-0.36-7.86-0.63-8.53-0.81
		c-0.68-0.18-1.01-0.81-1.01-1.9c0-1.08,0.77-1.63,2.31-1.63c1.74,0,3.37,0,4.92,0h5.78c14.85,0,30.85-3.08,48.01-9.26
		c0.96,3.86,1.45,8.29,1.45,13.3v12.15c3.66-9.34,7.66-15.92,12-19.73s9.98-5.72,16.92-5.72c6.55,0,11.9,2.02,16.05,6.07
		C479.67,512.41,481.74,517.52,481.74,523.69z"/>
	<path d="M626.93,564.47c0,24.3-9.64,43.1-28.92,56.4c-13.3,9.07-27.19,13.59-41.65,13.59c-5.4,0-13.21-1.74-23.43-5.21
		c-5.4-1.92-9.54-2.89-12.44-2.89c-5.21,0-10.51,1.93-15.91,5.79c-1.16,0.77-2.02,1.16-2.6,1.16c-1.35,0-2.12-0.58-2.31-1.74
		s-0.29-4.63-0.29-10.41V476.83c0-0.77,0-2.6,0-5.5c0-2.7,0-5.11,0-7.23v-12.73c0-5.01-0.9-8.29-2.71-9.83
		c-1.81-1.54-5.76-2.31-11.85-2.31c-5.14,0-7.71-0.67-7.71-2.03c0-1.35,1.18-2.02,3.52-2.02c21.91,0,40.98-2.41,57.21-7.23
		l0.29,4.63v85.32c7.69-10.6,18.35-15.91,32-15.91c16.53,0,30.12,5.83,40.79,17.5C621.59,531.16,626.93,546.15,626.93,564.47z
		 M583.83,565.63c0-37.41-7.81-56.11-23.43-56.11c-8.68,0-15.04,4.05-19.09,12.15c-1.55,3.09-2.46,6.7-2.75,10.85
		c-0.29,4.15-0.43,15.96-0.43,35.43v17.64c0,18.13,1.2,30.13,3.62,36.01c2.41,5.88,7.28,8.82,14.61,8.82
		c10.02,0,17.11-4.92,21.26-14.75C581.76,605.83,583.83,589.15,583.83,565.63z"/>
	<path d="M763.44,507.49c0,1.35-0.39,2.17-1.16,2.46c-0.77,0.29-3.47,0.43-8.1,0.43c-5.21,0-8.29,0.29-9.26,0.87l-1.74,3.18
		l-3.47,10.12c-1.54,4.63-5.02,13.98-10.41,28.06c-0.39,1.16-4.63,13.01-12.73,35.57c-19.09,53.41-31.43,85.71-37.02,96.89
		c-6.94,13.88-15.81,20.82-26.61,20.82c-6.17,0-11.14-1.83-14.9-5.5s-5.64-8.49-5.64-14.46c0-9.45,5.21-14.17,15.62-14.17
		c3.47,0,6.26,1.16,8.39,3.47c0.96,0.96,2.6,3.66,4.92,8.1c1.35,1.92,3.18,2.89,5.5,2.89c3.85,0,7.57-3.23,11.14-9.69
		s8.43-18.66,14.61-36.59c-1.54-3.09-4.52-9.93-8.95-20.54c-5.79-14.65-13.52-33.83-23.17-57.55c-2.31-5.79-7.5-18.42-15.58-37.9
		c-2.7-6.82-5.02-10.89-6.95-12.19c-1.93-1.3-6.37-2.06-13.32-2.26c-2.31,0-3.48-0.67-3.48-2.02c0-1.35,1.16-2.02,3.47-2.02h5.21
		c2.89,0,7.23,0,13.02,0s10.22,0,13.3,0h35.29c1.16,0,2.5,0,4.05,0c2.12,0,3.18,0.68,3.18,2.02c0,1.74-2.89,2.51-8.68,2.31
		c-5.78-0.19-8.68,1.06-8.68,3.76c0,1.93,0.77,4.92,2.31,8.97c2.12,5.4,3.28,8.58,3.47,9.54c9.45,26.22,17.16,46.18,23.14,59.87
		c17.93-45.7,26.9-71.73,26.9-78.09c0-2.12-2.22-3.18-6.65-3.18c-9.25,0-13.88-0.87-13.88-2.6s1.16-2.6,3.47-2.6
		c1.92,0,3.85,0.1,5.78,0.29c3.66,0.39,8.68,0.58,15.04,0.58c0.77,0,3.62-0.14,8.53-0.43c4.92-0.29,8.14-0.43,9.69-0.43h1.74
		C762.57,505.47,763.44,506.15,763.44,507.49z"/>
</g>
</svg>
